<svg data-v-d3f97b9e="" xmlns="http://www.w3.org/2000/svg" viewBox="0 0 183.26849615668314 163"><!----><!----><!----><g data-v-d3f97b9e="" id="51cea6e8-f601-4b29-ae2b-893457fbc8d3" fill="white" transform="matrix(5.8365760270947415,0,0,5.8365760270947415,-10.214005484888219,81.75486384118685)"><path d="M6.86 13.75L1.75 13.75L1.75 13.15L5.57 7.48L2.03 7.48L2.03 6.59L6.87 6.59L6.87 7.18L3.02 12.87L6.86 12.87L6.86 13.75ZM12.49 13.92L12.49 13.92L12.49 13.92Q11.33 13.92 10.65 13.29L10.65 13.29L10.65 13.29Q9.97 12.67 9.97 11.49L9.97 11.49L9.97 11.49Q9.97 10.33 10.74 9.73L10.74 9.73L10.74 9.73Q11.51 9.13 12.66 9.13L12.66 9.13L12.66 9.13Q13.73 9.13 14.67 9.63L14.67 9.63L14.67 9.03L14.67 9.03Q14.67 7.28 13.10 7.28L13.10 7.28L13.10 7.28Q12.05 7.28 10.84 8.05L10.84 8.05L10.56 7.21L10.56 7.21Q11.86 6.43 13.20 6.43L13.20 6.43L13.20 6.43Q13.64 6.43 14.01 6.53L14.01 6.53L14.01 6.53Q14.39 6.64 14.76 6.90L14.76 6.90L14.76 6.90Q15.13 7.15 15.36 7.67L15.36 7.67L15.36 7.67Q15.58 8.18 15.58 8.90L15.58 8.90L15.58 13.75L14.67 13.75L14.67 13.05L14.67 13.05Q13.71 13.92 12.49 13.92ZM12.59 13.06L12.59 13.06L12.59 13.06Q13.78 13.06 14.67 11.96L14.67 11.96L14.67 10.57L14.67 10.57Q13.79 9.98 12.75 9.98L12.75 9.98L12.75 9.98Q11.94 9.98 11.41 10.37L11.41 10.37L11.41 10.37Q10.88 10.75 10.88 11.49L10.88 11.49L10.88 11.49Q10.88 12.21 11.33 12.64L11.33 12.64L11.33 12.64Q11.77 13.06 12.59 13.06ZM24.63 9.88L24.63 9.88L24.63 9.88Q24.63 10.26 24.60 10.57L24.60 10.57L19.53 10.57L19.53 10.57Q19.67 11.72 20.24 12.36L20.24 12.36L20.24 12.36Q20.82 13.01 21.74 13.01L21.74 13.01L21.74 13.01Q22.65 13.01 23.45 12.45L23.45 12.45L23.98 13.10L23.98 13.10Q22.95 13.92 21.70 13.92L21.70 13.92L21.70 13.92Q20.23 13.92 19.36 12.83L19.36 12.83L19.36 12.83Q18.49 11.75 18.49 10.16L18.49 10.16L18.49 10.16Q18.49 8.40 19.36 7.41L19.36 7.41L19.36 7.41Q20.23 6.43 21.70 6.43L21.70 6.43L21.70 6.43Q22.97 6.43 23.80 7.30L23.80 7.30L23.80 7.30Q24.63 8.18 24.63 9.88ZM19.50 9.69L19.50 9.69L23.63 9.69L23.63 9.69Q23.62 8.39 23.04 7.85L23.04 7.85L23.04 7.85Q22.46 7.31 21.70 7.31L21.70 7.31L21.70 7.31Q20.66 7.31 20.11 7.94L20.11 7.94L20.11 7.94Q19.56 8.57 19.50 9.69ZM33.15 13.75L32.07 13.75L29.76 9.18L28.39 10.64L28.39 13.75L27.41 13.75L27.41 4.12L28.39 3.64L28.39 9.48L31.07 6.59L32.20 6.59L30.45 8.46L33.15 13.75Z"></path></g><!----><g data-v-d3f97b9e="" id="97a54c30-508e-4eb9-b705-1f4d44050680" transform="matrix(1.007748395044875,0,0,1.007748395044875,42.04957666686745,-5.041422910333182)" stroke="none" fill="white"><path d="M76.046 35.979a57.404 57.404 0 0 0-4.32-1.198c3.628-9.524 3.785-19.078.421-27.817l-.624-1.618-1.371 1.06c-6.646 5.134-13.399 12.271-16.546 26.14a112.94 112.94 0 0 0-3.604-.064c-1.714 0-3.407.041-5.076.116-3.141-13.903-9.904-21.051-16.559-26.191l-1.372-1.06-.622 1.618c-3.405 8.843-3.204 18.519.55 28.154-1.027.268-2.02.555-2.967.861-9.52 3.08-11.518 6.879-11.518 9.524 0 2.646 1.998 6.447 11.518 9.525.059.018.121.035.179.055v35.287a4.289 4.289 0 0 0 4.283 4.283h41.876a4.288 4.288 0 0 0 4.282-4.283V55.477c.499-.145.991-.293 1.471-.447 9.519-3.078 11.517-6.88 11.517-9.525-.002-2.646-2-6.446-11.518-9.526zM60.072 21.952c2.994-5.802 6.765-9.545 10.258-12.392 2.843 8.655 2.09 17.805-2.247 27.226-2.201 4.78-4.854 8.496-6.518 10.594 7.168-13.982 6.864-26.912 6.846-27.507l-.1-3.176-2.145 2.344c-8.841 9.663-10.891 26.445-11.287 30.905a4.14 4.14 0 0 1-.511-.049c.088-11.532 1.957-20.681 5.704-27.945zm8.495 19.579c2.228 1.028 3.431 2.161 3.431 3.146 0 1.615-3.213 3.623-8.895 4.918 1.3-1.579 3.403-4.36 5.464-8.064zm-11.024 7.788c.501-4.62 2.317-16.842 8.109-25.438-.473 5.355-2.162 15.431-8.109 25.438zm-7.542-14.255c1.046 0 2.067.019 3.08.047-.05.269-.099.541-.145.812a70.276 70.276 0 0 0-2.937-.069c-1.466 0-2.942.048-4.406.141a84.795 84.795 0 0 0-.148-.837c1.482-.061 2.999-.094 4.556-.094zm-4.021 3.484a71.722 71.722 0 0 1 6.565-.067c-.491 3.67-.762 7.737-.762 12.267v.147a71.588 71.588 0 0 1-5.049-.052v-.096c0-4.5-.267-8.546-.754-12.199zM28.188 9.561c3.492 2.846 7.264 6.59 10.256 12.391 3.749 7.265 5.616 16.414 5.704 27.945-.134.022-.303.04-.511.049-.397-4.459-2.446-21.242-11.287-30.905l-2.146-2.344-.099 3.176c-.019.595-.322 13.512 6.835 27.486-4.144-5.255-14.382-20.577-8.752-37.798zm12.785 39.757c-5.931-9.986-7.625-20.068-8.103-25.43 5.779 8.59 7.601 20.808 8.103 25.43zm-5.946-.198c-4.512-1.279-7.025-3.015-7.025-4.443 0-.799.792-1.697 2.28-2.556a55.23 55.23 0 0 0 4.745 6.999zm36.965 41.251a1.7 1.7 0 0 1-1.699 1.699H28.417a1.7 1.7 0 0 1-1.7-1.699V55.838c6.571 1.74 14.71 2.691 23.284 2.691 8.021 0 15.66-.832 21.991-2.365v34.207zm2.571-37.588c-.404.123-.819.244-1.244.365l-.014.002c-.427.119-.862.236-1.308.348C66.154 54.98 58.624 55.943 50 55.943c-9.275 0-17.285-1.113-23.291-2.789a46.918 46.918 0 0 1-2.575-.793c-5.771-1.964-9.114-4.475-9.114-6.857 0-2.863 4.835-5.916 12.916-7.977.062.139.123.278.188.417.31.669.627 1.316.948 1.943-2.272 1.3-3.652 2.902-3.652 4.791 0 5.732 12.664 8.825 24.58 8.825 11.917 0 24.582-3.092 24.582-8.825 0-2.195-1.863-4.003-4.829-5.399.216-.435.43-.88.642-1.334.113-.248.223-.494.333-.741 8.882 2.054 14.252 5.283 14.252 8.301-.001 2.555-3.848 5.261-10.417 7.278z"></path></g><!----></svg>